<svg width="418" height="300" viewBox="0 0 418 300" fill="none" xmlns="http://www.w3.org/2000/svg">
<g clip-path="url(#clip0_149_252)">
<path d="M93.0396 87.2043H93.2313C93.2313 89.6384 93.2313 92.0247 93.2313 94.3726C93.2313 96.7301 93.2313 99.1164 93.2313 101.541V115.839C93.2313 118.273 93.2313 120.698 93.2313 123.123C93.2313 125.528 93.2313 127.943 93.2313 130.368C93.2313 131.038 93.193 131.776 93.1163 132.591C93.0588 133.386 93.0971 134.182 93.2313 134.968C93.3559 135.121 93.3846 135.37 93.308 135.696C93.2505 136.031 93.2313 136.338 93.2313 136.616C93.2313 136.999 93.3271 137.373 93.538 137.728C93.7392 138.063 93.9021 138.418 94.0363 138.801C94.573 139.75 95.1863 140.43 95.8763 140.833C96.2596 140.967 96.6526 141.024 97.0646 141.024C97.4671 141.024 97.8026 141.024 98.0613 141.024C98.2146 141.024 98.2913 141.063 98.2913 141.139C98.2913 141.197 98.2913 141.216 98.2913 141.216C98.6746 141.216 99.2688 141.36 100.093 141.638C100.093 141.638 100.093 141.618 100.093 141.561C100.093 141.484 100.15 141.446 100.285 141.446C100.409 141.446 100.515 141.408 100.591 141.331C100.668 141.254 100.764 141.216 100.898 141.216H102.93C104.386 141.369 105.853 141.408 107.338 141.331C108.814 141.254 110.232 141.216 111.593 141.216C111.593 141.216 111.612 141.293 111.67 141.446C111.746 141.58 111.842 141.638 111.976 141.638C112.379 141.513 112.791 141.408 113.203 141.331C113.605 141.254 114.008 141.293 114.391 141.446H114.813C114.813 141.446 114.832 141.388 114.89 141.254C114.966 141.101 115.062 141.024 115.196 141.024C115.599 141.024 116.04 141.024 116.5 141.024C116.979 141.024 117.429 140.967 117.841 140.833C118.627 140.555 119.164 140.286 119.451 140.028C120.39 139.088 120.994 138.14 121.253 137.191C121.378 136.654 121.445 136.098 121.445 135.504C121.445 134.891 121.445 134.316 121.445 133.779C121.445 131.508 121.406 129.16 121.33 126.726C121.272 124.301 121.253 121.953 121.253 119.673C121.253 117.373 121.31 115.025 121.445 112.619C121.598 110.195 121.675 107.847 121.675 105.566V91.2676C121.675 88.9676 121.675 86.6197 121.675 84.2143C121.675 81.7897 121.675 79.4226 121.675 77.1226V62.8243C121.675 60.553 121.598 58.2051 121.445 55.7709C121.31 53.3463 121.253 50.9984 121.253 48.7176C121.253 48.0563 121.31 47.4909 121.445 47.0309C121.598 46.5518 121.675 46.0343 121.675 45.4976C121.675 44.8363 121.598 44.2326 121.445 43.6959C121.31 43.1593 121.253 42.6226 121.253 42.0859C121.253 42.2201 121.31 41.7026 121.445 40.5526C121.598 39.4026 121.598 38.8276 121.445 38.8276L121.253 37.6393C121.253 37.5147 121.272 37.4093 121.33 37.3326C121.406 37.2559 121.445 37.1601 121.445 37.0259C121.445 36.7768 121.339 36.4797 121.138 36.1443C120.956 35.7897 120.87 35.483 120.87 35.2243C120.87 34.8218 120.927 34.4097 121.061 33.9976C121.186 33.5951 121.186 33.1159 121.061 32.5793C120.927 32.0426 120.831 31.5059 120.755 30.9693C120.678 30.4326 120.505 29.8959 120.256 29.3593C120.122 28.2859 119.72 27.0113 119.03 25.5259C118.895 24.8647 118.733 24.2609 118.531 23.7243C118.32 23.1876 118.09 22.6509 117.841 22.1143C117.688 21.5776 117.4 21.108 116.998 20.6959C116.615 20.2934 116.279 19.8143 116.001 19.2776C115.867 18.6163 115.666 18.0126 115.388 17.4759C115.129 16.9393 114.794 16.4026 114.391 15.8659C113.855 15.2047 113.318 14.5051 112.781 13.7576C112.245 13.0197 111.641 12.3201 110.98 11.6493C110.568 11.2468 110.117 10.873 109.638 10.5376C109.178 10.2118 108.68 9.83801 108.143 9.42593C108.143 9.42593 108.181 9.38759 108.258 9.31093C108.335 9.23426 108.296 9.19593 108.143 9.19593L106.955 8.00759C106.543 7.72968 106.169 7.46134 105.843 7.20259C105.508 6.92468 105.134 6.65634 104.731 6.39759L102.93 5.40093C102.24 4.99843 101.483 4.62468 100.668 4.28926C99.8726 3.96343 99.1442 3.65676 98.483 3.36926C97.9463 3.09134 97.3713 2.82301 96.758 2.56426C96.1638 2.28634 95.5313 2.08509 94.8413 1.95093L92.618 1.56759C91.9471 1.41426 91.2476 1.28009 90.5096 1.14593C89.7621 1.02134 89.0626 0.896758 88.4013 0.762593C90.6726 0.609259 91.3146 0.532593 90.318 0.532593C89.3213 0.532593 87.7113 0.570926 85.488 0.647593C83.2646 0.724259 81.4055 0.829677 79.9296 0.954259C79.393 1.08843 78.8755 1.12676 78.3963 1.06926C77.9363 0.992593 77.438 1.08843 76.9013 1.33759C76.3646 1.49093 75.8471 1.67301 75.368 1.87426C74.908 2.05634 74.4096 2.21926 73.873 2.37259C73.6142 2.50676 73.3171 2.56426 72.9913 2.56426C72.6559 2.56426 72.3492 2.63134 72.0713 2.75593C71.5346 2.89009 71.0555 3.05301 70.653 3.25426C70.2696 3.46509 69.8671 3.63759 69.4646 3.79093C68.1038 4.32759 66.7621 4.99843 65.4396 5.78426C65.0276 5.91843 64.6155 6.15801 64.213 6.51259C63.8009 6.84801 63.3313 7.07801 62.7946 7.20259C62.5359 7.33676 61.9992 7.39426 61.1846 7.39426C60.9259 7.26968 60.5905 7.20259 60.188 7.20259C59.7759 7.20259 59.4405 7.14509 59.1913 7.01093C58.6546 6.73301 58.2426 6.39759 57.9646 6.01426C57.7059 5.61176 57.3705 5.32426 56.968 5.17093C56.4313 4.92176 55.9138 4.66301 55.4346 4.40426C54.9746 4.12634 54.4763 3.92509 53.9396 3.79093C53.5276 3.51301 53.0771 3.31176 52.598 3.17759C52.138 3.02426 51.7163 2.89009 51.333 2.75593C50.9209 2.63134 50.4705 2.54509 49.9913 2.48759C49.5313 2.41093 49.0905 2.29593 48.688 2.14259C48.4292 2.01801 48.1226 1.89343 47.768 1.75926C47.4326 1.63468 47.078 1.49093 46.6946 1.33759C46.158 1.21301 45.6021 1.14593 45.0463 1.14593C44.5096 1.14593 43.973 1.08843 43.4363 0.954259C43.973 1.08843 43.8676 1.08843 43.1296 0.954259C42.4109 0.829677 41.5196 0.685926 40.4463 0.532593C39.7563 0.532593 38.9992 0.570926 38.1846 0.647593C37.3892 0.724259 36.6609 0.829677 35.9996 0.954259H35.1946C34.7826 1.08843 34.4088 1.12676 34.083 1.06926C33.7476 0.992593 33.3738 0.954259 32.9713 0.954259C32.4346 1.08843 31.898 1.25134 31.3613 1.45259C30.8246 1.66343 30.288 1.82634 29.7513 1.95093C29.3392 2.08509 28.9271 2.14259 28.5246 2.14259C28.1413 2.14259 27.7388 2.21926 27.3363 2.37259C27.0488 2.50676 26.7709 2.56426 26.493 2.56426C26.2342 2.56426 25.9755 2.63134 25.7263 2.75593C25.3142 2.89009 24.9405 3.02426 24.6146 3.17759C24.2792 3.31176 23.9055 3.43634 23.503 3.56093C22.9663 3.84843 22.4296 4.12634 21.893 4.40426C21.3563 4.66301 20.7525 4.92176 20.0913 5.17093C19.6792 5.45843 19.2959 5.80343 18.9413 6.20593C18.6059 6.58926 18.1746 6.92468 17.638 7.20259C17.2546 7.46134 16.8521 7.72968 16.4496 8.00759C16.0375 8.26634 15.7021 8.53468 15.453 8.81259C14.9163 9.07134 14.4659 9.40676 14.1113 9.80926C13.7759 10.2213 13.4213 10.6334 13.038 11.0359C12.4725 11.5726 11.9838 12.0901 11.5813 12.5693C11.198 13.0293 10.7955 13.5276 10.393 14.0643C9.98088 14.4476 9.5688 14.8884 9.1663 15.3676C8.78297 15.8276 8.38047 16.3259 7.97796 16.8626C7.4413 17.8113 6.8663 18.693 6.25296 19.5076C5.6588 20.303 5.10296 21.1751 4.5663 22.1143C4.5663 22.4018 4.42255 22.6701 4.14463 22.9193C4.01047 23.2068 3.95296 23.5134 3.95296 23.8393C3.95296 24.1747 3.88588 24.4718 3.7613 24.7209C3.60796 25.133 3.42588 25.5068 3.22463 25.8326C3.04255 26.168 2.81255 26.4747 2.53463 26.7526C2.53463 26.8868 2.5538 27.0209 2.6113 27.1743C2.68796 27.3084 2.7263 27.5001 2.7263 27.7493C2.7263 27.8834 2.68796 28.0176 2.6113 28.1709C2.5538 28.3051 2.53463 28.5063 2.53463 28.7843C2.40047 29.5797 2.19921 30.3463 1.9213 31.0843C1.66255 31.8318 1.47088 32.5984 1.3463 33.3843C1.3463 33.6718 1.20255 34.218 0.924631 35.0326C0.924631 35.2913 0.982129 35.5597 1.1163 35.8376C1.26963 36.0963 1.26963 36.3647 1.1163 36.6426C1.1163 37.0259 1.04921 37.4284 0.924631 37.8309C0.790465 38.243 0.732964 38.6551 0.732964 39.0576C0.598796 40.2651 0.627547 41.5013 0.809631 42.7759C1.01088 44.0601 1.04921 45.2963 0.924631 46.4943V61.6359C0.924631 64.0414 0.886297 66.4947 0.809631 68.9959C0.752129 71.478 0.732964 73.9984 0.732964 76.5476V91.4593C0.732964 94.018 0.732964 96.5384 0.732964 99.0109C0.732964 101.493 0.732964 104.013 0.732964 106.563C0.732964 109.121 0.790465 111.651 0.924631 114.153C1.04921 116.635 1.1163 119.078 1.1163 121.474C1.1163 122.423 1.04921 123.333 0.924631 124.196C0.790465 125.068 0.732964 125.978 0.732964 126.918C0.732964 127.866 0.752129 128.777 0.809631 129.639C0.886297 130.511 0.982129 131.422 1.1163 132.361V132.974C1.1163 133.511 1.07796 134.028 1.0013 134.508C0.943799 134.968 0.924631 135.466 0.924631 136.003C0.924631 136.539 1.04921 137.018 1.30796 137.421C1.58588 137.804 1.78713 138.207 1.9213 138.609C2.19921 139.28 2.54421 139.75 2.9563 140.028C3.20546 140.286 3.54088 140.449 3.95296 140.526C4.35546 140.603 4.75796 140.708 5.1413 140.833C5.67796 140.967 6.55963 141.024 7.7863 141.024C7.7863 141.024 7.7863 141.063 7.7863 141.139C7.7863 141.197 7.8438 141.216 7.97796 141.216C8.10255 141.216 8.20796 141.254 8.28463 141.331C8.3613 141.408 8.45713 141.446 8.5913 141.446C8.9938 141.293 9.36755 141.197 9.70297 141.139C10.0288 141.063 10.4025 141.024 10.8146 141.024C12.2905 141.024 13.7375 141.13 15.1463 141.331C16.5455 141.542 17.9255 141.638 19.2863 141.638H19.6696C20.0721 141.513 20.4746 141.408 20.858 141.331C21.2605 141.254 21.7396 141.293 22.2763 141.446H22.5063C22.6309 141.293 22.7555 141.254 22.8896 141.331C23.0142 141.408 23.158 141.369 23.3113 141.216C23.5605 141.216 23.8192 141.254 24.078 141.331C24.3559 141.408 24.5571 141.369 24.6913 141.216C25.0938 141.216 25.7071 141.091 26.5313 140.833C26.9338 140.555 27.2692 140.219 27.528 139.836C27.8059 139.433 28.0071 139.021 28.1413 138.609C28.3905 138.207 28.6492 137.804 28.908 137.421C29.1859 137.018 29.3296 136.539 29.3296 136.003V132.783C29.3296 132.246 29.3296 131.748 29.3296 131.288C29.3296 130.808 29.3296 130.358 29.3296 129.946V115.418C29.3296 113.022 29.3296 110.645 29.3296 108.288C29.3296 105.94 29.3296 103.553 29.3296 101.119C29.3296 98.6947 29.2913 96.2797 29.2146 93.8743C29.1571 91.4497 29.138 89.0347 29.138 86.6293V72.2926C29.138 69.8968 29.1571 67.4818 29.2146 65.0476C29.2913 62.623 29.3296 60.208 29.3296 57.8026C29.3296 55.378 29.2913 52.9918 29.2146 50.6343C29.1571 48.2863 29.138 45.9001 29.138 43.4659C29.138 42.8047 29.1571 42.1818 29.2146 41.5876C29.2913 40.9743 29.4063 40.3993 29.5596 39.8626V39.4409C29.5596 39.1918 29.5213 38.8563 29.4446 38.4443C29.368 38.0418 29.3296 37.6297 29.3296 37.2176C29.6076 36.4318 29.943 35.6651 30.3263 34.9176C30.7288 34.1797 31.2176 33.4801 31.783 32.8093C31.9076 32.5313 32.0705 32.3301 32.2813 32.1959C32.4826 32.0713 32.6455 31.9276 32.7796 31.7743C33.3163 31.2376 34.1213 30.7009 35.1946 30.1643C35.7313 29.9151 36.1626 29.7234 36.498 29.5893C36.8238 29.4359 37.2646 29.3593 37.8013 29.3593L38.6063 29.1676C38.8842 29.043 39.1909 29.043 39.5263 29.1676C39.8521 29.3018 40.0821 29.3593 40.2163 29.3593C41.5676 29.7713 42.5738 30.2409 43.2446 30.7776C43.5226 30.9118 43.7238 31.0459 43.858 31.1993C43.9826 31.3334 44.1071 31.458 44.2413 31.5826C44.5192 31.8701 44.7205 32.2151 44.8546 32.6176C45.008 33.0009 45.1421 33.3363 45.2763 33.6143C45.5255 33.9976 45.7842 34.4001 46.043 34.8026C46.3209 35.2147 46.5413 35.6843 46.6946 36.2209V37.0259C46.6946 37.438 46.6563 37.8501 46.5796 38.2526C46.503 38.6359 46.5413 38.9713 46.6946 39.2493C46.6946 39.7859 46.7809 40.2651 46.963 40.6676C47.1642 41.0797 47.2696 41.4726 47.2696 41.8559C47.2696 44.4147 47.2026 46.9063 47.078 49.3309C46.9438 51.7363 46.8863 54.2184 46.8863 56.7676C46.8863 59.2018 46.9055 61.6264 46.963 64.0509C47.0396 66.4564 47.078 68.9384 47.078 71.4876C47.078 73.9218 47.0396 76.3751 46.963 78.8476C46.9055 81.3297 46.8863 83.783 46.8863 86.2076V100.928C46.8863 103.486 46.9055 105.978 46.963 108.403C47.0396 110.808 47.078 113.223 47.078 115.648C47.078 118.206 47.0396 120.698 46.963 123.123C46.9055 125.528 46.8863 128.01 46.8863 130.559C46.8863 131.23 46.848 131.968 46.7713 132.783C46.7138 133.578 46.7521 134.306 46.8863 134.968C46.8863 135.658 46.9438 136.213 47.078 136.616C47.078 136.999 47.2121 137.603 47.4996 138.418C47.7488 138.954 48.0459 139.433 48.3813 139.836C48.7071 140.219 49.148 140.555 49.6846 140.833C50.4992 141.245 51.3138 141.446 52.138 141.446C52.138 141.446 52.138 141.408 52.138 141.331C52.138 141.254 52.1955 141.216 52.3296 141.216C52.5788 141.369 52.8376 141.408 53.0963 141.331C53.3742 141.254 53.6521 141.216 53.9396 141.216L54.1313 141.446C54.1313 141.446 54.3326 141.446 54.7446 141.446H56.968C58.4438 141.446 59.8909 141.446 61.2996 141.446C62.6988 141.446 64.0788 141.446 65.4396 141.446H65.823C66.6376 141.168 67.2413 141.024 67.6246 141.024C68.0271 141.158 68.5063 141.216 69.043 141.216C69.5796 141.216 70.078 141.216 70.538 141.216C71.0171 141.216 71.4676 141.158 71.8796 141.024C72.1288 140.9 72.3876 140.737 72.6463 140.526C72.9242 140.325 73.2021 140.162 73.4896 140.028C74.2755 139.213 74.7546 138.264 74.908 137.191C75.1571 136.654 75.253 136.098 75.1763 135.504C75.1188 134.891 75.0996 134.316 75.0996 133.779C75.0996 131.355 75.1571 128.901 75.2913 126.419C75.4159 123.947 75.483 121.493 75.483 119.059C75.483 116.51 75.4446 114.028 75.368 111.623C75.3105 109.198 75.2913 106.706 75.2913 104.148V89.4276C75.2913 86.8784 75.2913 84.3964 75.2913 81.9909C75.2913 79.5664 75.2913 77.0747 75.2913 74.5159C75.2913 72.0914 75.3105 69.638 75.368 67.1559C75.4446 64.6834 75.483 62.2301 75.483 59.7959C75.483 57.2468 75.4159 54.7263 75.2913 52.2443C75.1571 49.7718 75.0996 47.3184 75.0996 44.8843C75.0996 44.0984 75.1188 43.2647 75.1763 42.3926C75.253 41.5013 75.3488 40.658 75.483 39.8626C75.483 39.4601 75.4446 39.0193 75.368 38.5593C75.3105 38.0801 75.3488 37.6297 75.483 37.2176C75.6363 36.9684 75.8088 36.7097 76.0196 36.4509C76.2209 36.173 76.3838 35.9718 76.518 35.8376L77.1313 33.9976C77.3805 33.4609 77.6776 32.9626 78.013 32.5026C78.3388 32.0234 78.7796 31.5826 79.3163 31.1993C79.7188 30.7968 80.2171 30.4613 80.8113 30.2026C81.4246 29.9247 82.0092 29.7234 82.5746 29.5893C82.958 29.4359 83.3509 29.3018 83.763 29.1676C84.1655 29.043 84.6446 28.9759 85.1813 28.9759C85.718 28.9759 86.3792 29.2443 87.1746 29.7809C88.8038 30.193 90.088 31.0651 91.008 32.3876C91.698 33.2118 92.1005 33.9497 92.2346 34.6109C92.4838 35.023 92.5796 35.4351 92.503 35.8376C92.4455 36.2209 92.4838 36.6234 92.618 37.0259C92.618 37.3134 92.6755 37.5913 92.8096 37.8693C92.963 38.128 93.0396 38.3868 93.0396 38.6359C93.1642 38.7701 93.2313 38.9713 93.2313 39.2493C93.2313 39.508 93.193 39.8434 93.1163 40.2459C93.0588 40.658 93.0396 41.0701 93.0396 41.4726V56.5759C93.0396 59.1347 93.0588 61.6934 93.1163 64.2426C93.193 66.8014 93.2313 69.3601 93.2313 71.9093C93.2313 74.468 93.193 77.0268 93.1163 79.5759C93.0588 82.1059 93.0396 84.6551 93.0396 87.2043Z" fill="#D1D1D1"/>
<path d="M131.675 69.6984C131.675 70.7717 131.675 71.8642 131.675 72.9567C131.675 74.0301 131.751 75.1034 131.905 76.1767C131.905 76.9721 131.905 77.7388 131.905 78.4767C131.905 79.2242 131.962 80.0005 132.096 80.8151C132.221 81.3517 132.288 81.9267 132.288 82.5401C132.288 83.1342 132.346 83.7571 132.48 84.4184C132.633 84.8305 132.806 85.2042 133.016 85.5301C133.218 85.8655 133.381 86.2392 133.515 86.6417C133.515 87.5905 133.572 88.3284 133.706 88.8651C133.831 89.1238 133.86 89.4305 133.783 89.7851C133.726 90.1205 133.764 90.4176 133.898 90.6667L134.511 92.6984C134.789 93.9059 135.201 95.1134 135.738 96.3401C136.275 97.5476 136.735 98.8126 137.118 100.135C137.521 101.084 138.057 102.09 138.728 103.163C139.418 104.237 140.031 105.31 140.568 106.383L140.76 107.188C141.038 107.476 141.268 107.754 141.45 108.032C141.651 108.29 141.833 108.549 141.986 108.798C142.37 109.488 142.686 110.169 142.945 110.83C143.223 111.501 143.568 112.172 143.98 112.862L145.59 115.047C146.816 116.532 148.129 118.075 149.538 119.685C150.937 121.295 152.317 122.713 153.678 123.94C154.464 124.611 155.231 125.349 155.978 126.163C156.716 126.959 157.492 127.687 158.316 128.348C158.7 128.636 159.093 128.943 159.505 129.268C159.907 129.604 160.243 129.91 160.501 130.188C160.904 130.447 161.316 130.648 161.728 130.802C162.131 130.936 162.533 131.128 162.916 131.377C163.194 131.53 163.894 132.086 165.025 133.025C166.175 133.945 167.344 134.75 168.551 135.44C169.778 136.111 170.593 136.303 171.005 136.015C170.593 136.427 170.717 136.772 171.388 137.05C172.203 137.433 173.046 137.769 173.918 138.047C174.781 138.305 175.691 138.574 176.64 138.852C177.713 139.11 178.748 139.484 179.745 139.963C180.761 140.423 181.748 140.864 182.696 141.267C183.894 141.803 184.968 142.139 185.916 142.263C186.166 142.398 186.463 142.398 186.798 142.263C187.153 142.139 187.392 142.139 187.526 142.263C187.929 142.398 188.303 142.56 188.638 142.762C188.964 142.963 189.338 143.068 189.75 143.068C189.874 143.222 189.999 143.26 190.133 143.183C190.286 143.107 190.421 143.068 190.555 143.068C191.091 143.222 191.647 143.356 192.241 143.49C192.855 143.615 193.43 143.739 193.966 143.873C194.369 143.873 194.771 143.835 195.155 143.758C195.557 143.701 195.969 143.739 196.381 143.873C196.784 144.151 197.531 144.295 198.605 144.295C199.678 144.295 200.751 144.027 201.825 143.49C202.227 143.49 202.572 143.346 202.86 143.068L203.435 142.685C203.588 142.407 203.722 142.168 203.856 141.957C203.981 141.755 204.048 141.593 204.048 141.458C204.326 140.922 204.431 140.26 204.355 139.465C204.278 138.65 204.24 137.97 204.24 137.433C204.393 136.619 204.47 135.814 204.47 135.018C204.47 134.204 204.47 133.399 204.47 132.603C204.594 131.664 204.661 130.792 204.661 129.997C204.661 129.182 204.661 128.3 204.661 127.352C204.661 126.566 204.661 125.761 204.661 124.937C204.661 124.122 204.594 123.317 204.47 122.522V121.717C204.47 121.439 204.47 121.209 204.47 121.027C204.47 120.825 204.47 120.643 204.47 120.49C204.47 120.241 204.431 119.944 204.355 119.608C204.278 119.283 204.106 118.842 203.856 118.305C203.722 118.027 203.588 117.826 203.435 117.692C203.301 117.538 203.109 117.404 202.86 117.27C202.17 116.609 201.614 116.216 201.211 116.082C200.416 115.804 199.486 115.535 198.413 115.277C198.126 115.123 197.781 115.047 197.378 115.047C196.995 115.047 196.592 114.989 196.19 114.855C195.366 114.855 194.829 114.798 194.58 114.663C192.682 114.261 190.794 113.686 188.906 112.938C187.038 112.2 185.236 111.357 183.501 110.408C182.275 109.747 180.981 109.048 179.63 108.3C178.298 107.562 177.1 106.795 176.026 106C175.614 105.598 175.269 105.157 174.991 104.697C174.733 104.218 174.416 103.844 174.033 103.585C173.084 102.646 172.203 101.774 171.388 100.978C170.593 100.164 169.855 99.2821 169.165 98.3334C168.781 97.6721 168.321 97.0684 167.785 96.5317C167.248 95.9951 166.836 95.4584 166.558 94.9217L165.14 92.5067C165.14 92.3534 165.14 92.2576 165.14 92.2001C165.14 92.1234 165.14 92.0276 165.14 91.8934C165.006 91.6155 164.843 91.3471 164.641 91.0884C164.431 90.8105 164.335 90.5421 164.335 90.2834C164.201 90.0055 164.162 89.7659 164.22 89.5551C164.296 89.3538 164.335 89.1909 164.335 89.0567C164.335 88.6542 164.536 88.2517 164.948 87.8684C165.226 87.3317 165.638 86.9867 166.175 86.8334C166.558 86.5842 166.98 86.4501 167.44 86.4501C167.919 86.4501 168.369 86.4501 168.781 86.4501C170.669 86.4501 172.586 86.4884 174.531 86.5651C176.467 86.6226 178.451 86.6417 180.473 86.6417C182.332 86.6417 184.239 86.5842 186.185 86.4501C188.149 86.3255 189.999 86.3255 191.743 86.4501C192.433 86.5842 193.046 86.6417 193.583 86.6417C194.12 86.6417 194.656 86.6417 195.193 86.6417C196.132 86.6417 197.004 86.5459 197.8 86.3351C198.614 86.1338 199.419 85.7601 200.215 85.2234C201.288 84.4376 201.882 83.2684 202.016 81.7351C202.17 80.1826 202.246 78.8601 202.246 77.7867C202.246 77.5088 202.17 77.3459 202.016 77.2884C201.882 77.2117 201.825 77.1159 201.825 76.9817C201.825 76.9817 201.844 76.9434 201.901 76.8667C201.978 76.7901 202.016 76.6942 202.016 76.5601V69.1234C202.016 68.4334 202.016 67.6955 202.016 66.9001C202.016 66.0855 202.016 65.3476 202.016 64.6767C202.016 64.2742 202.016 63.8334 202.016 63.3734C202.016 62.8942 201.949 62.4534 201.825 62.0701C201.566 60.5942 200.828 59.4442 199.601 58.6201C199.467 58.6201 199.343 58.5626 199.218 58.4284C198.681 58.1505 197.934 58.0067 196.995 58.0067C196.046 58.0067 195.241 58.0067 194.58 58.0067H194.158C193.363 58.0067 192.558 57.9492 191.743 57.8151C190.948 57.6905 190.143 57.6234 189.328 57.6234C188.379 57.7576 187.469 57.8151 186.606 57.8151C185.734 57.8151 184.766 57.8151 183.693 57.8151C181.796 57.9492 179.879 58.0067 177.943 58.0067C175.998 58.0067 174.081 58.0067 172.193 58.0067C172.059 58.0067 171.963 57.9492 171.886 57.8151C171.829 57.6905 171.743 57.6905 171.618 57.8151H171.005C171.005 57.8151 170.938 57.8151 170.813 57.8151C170.401 57.8151 169.951 57.7959 169.471 57.7384C169.011 57.6617 168.571 57.6234 168.168 57.6234C167.756 57.6234 167.382 57.6617 167.056 57.7384C166.721 57.7959 166.347 57.7576 165.945 57.6234C165.561 57.3455 165.226 57.0101 164.948 56.6267C164.814 56.3488 164.756 56.1092 164.756 55.8984C164.756 55.6971 164.756 55.5342 164.756 55.4001C164.756 55.2755 164.68 55.1509 164.526 55.0167C164.392 54.8634 164.335 54.7292 164.335 54.5951L165.14 53.1767C165.418 52.7742 165.581 52.3717 165.638 51.9884C165.715 51.5859 165.811 51.1738 165.945 50.7617C168.906 45.5292 172.941 41.0634 178.058 37.3834C183.166 33.6842 188.609 31.1542 194.388 29.7934L197.186 29.1801C197.464 29.1801 197.704 29.2184 197.915 29.2951C198.116 29.3717 198.279 29.3334 198.413 29.1801H199.218C201.489 28.9309 202.936 27.9917 203.55 26.3817C204.163 24.7717 204.527 23.0276 204.661 21.1301C204.786 20.1909 204.853 19.2134 204.853 18.2167C204.853 17.2009 204.853 16.2234 204.853 15.3034C204.853 11.8055 204.642 8.38423 204.24 5.03006C204.106 4.75215 204.048 4.40715 204.048 3.99506C204.048 3.59256 203.914 3.25715 203.665 2.9984C203.128 1.92506 202.304 1.22548 201.211 0.890063C200.138 0.564231 199.065 0.458814 197.991 0.583396C197.455 0.717564 196.976 0.755895 196.573 0.698396C196.19 0.62173 195.73 0.65048 195.193 0.775063C194.906 0.775063 194.599 0.85173 194.273 1.00506C193.938 1.13923 193.631 1.19673 193.353 1.19673C192.816 1.3309 192.318 1.3884 191.858 1.3884C191.398 1.3884 190.957 1.3884 190.555 1.3884L186.53 2.38506C185.993 2.38506 185.581 2.45215 185.303 2.57673C185.169 2.73006 185.006 2.87381 184.805 2.9984C184.594 3.13256 184.364 3.19006 184.115 3.19006C183.961 3.32423 183.779 3.38173 183.578 3.38173C183.367 3.38173 183.137 3.4584 182.888 3.61173C182.754 3.61173 182.62 3.5734 182.466 3.49673C182.332 3.42006 182.208 3.4584 182.083 3.61173C181.546 3.61173 181.211 3.67881 181.086 3.8034C180.933 3.8034 180.789 3.90881 180.665 4.11006C180.531 4.3209 180.329 4.41673 180.051 4.41673C179.668 4.5509 179.227 4.68506 178.748 4.8384C178.288 4.97256 177.847 5.09715 177.445 5.22173C177.033 5.3559 176.582 5.49006 176.103 5.6434C175.643 5.77756 175.145 5.96923 174.608 6.2184C174.474 6.2184 174.378 6.29506 174.301 6.4484C174.244 6.58256 174.081 6.64006 173.803 6.64006C173.669 6.77423 173.468 6.87006 173.19 6.94673C172.931 7.00423 172.672 7.16715 172.423 7.44506C171.886 7.57923 171.35 7.90506 170.813 8.44173C170.526 8.44173 170.391 8.44173 170.391 8.44173C170.257 8.44173 170.2 8.50881 170.2 8.6334C170.2 8.76756 170.123 8.90173 169.97 9.05506C169.711 9.18923 169.414 9.31381 169.088 9.4384C168.753 9.57256 168.446 9.70673 168.168 9.86006C168.034 9.99423 167.804 10.0901 167.478 10.1667C167.143 10.2242 166.836 10.3105 166.558 10.4351L160.31 14.6901C160.176 14.8242 160.041 14.9584 159.888 15.1117C159.754 15.2459 159.629 15.3705 159.505 15.4951C158.709 16.0317 158.106 16.5109 157.703 16.9134C155.556 18.6576 153.429 20.6701 151.34 22.9701C149.27 25.2509 147.353 27.5221 145.59 29.7934C144.794 30.7421 144.028 31.8251 143.29 33.0517C142.542 34.2592 141.843 35.3901 141.181 36.4634C139.696 39.2809 138.316 42.2326 137.041 45.3184C135.757 48.4138 134.789 51.5667 134.128 54.7867C133.975 55.1988 133.687 56.2817 133.285 58.0451C132.901 59.7892 132.566 61.4376 132.288 62.9901C132.029 64.5234 132.029 65.3571 132.288 65.4817C131.876 66.8426 131.675 68.2417 131.675 69.6984Z" fill="#D1D1D1"/>
<path d="M238.242 141.638V142.021C238.491 142.021 238.826 142.021 239.238 142.021C239.641 142.021 239.976 141.954 240.235 141.829C240.772 141.829 241.174 141.503 241.462 140.833C241.586 140.679 241.586 140.516 241.462 140.334C241.328 140.133 241.27 139.951 241.27 139.798V124.311C241.27 122.011 241.328 119.692 241.462 117.334C241.586 114.986 241.653 112.734 241.653 110.588V96.6726C241.653 94.4013 241.653 92.0918 241.653 89.7343C241.653 87.3863 241.653 85.1343 241.653 82.9876C241.653 80.6876 241.615 78.3684 241.538 76.0109C241.481 73.663 241.462 71.3534 241.462 69.0726C241.462 66.7726 241.481 64.4534 241.538 62.0959C241.615 59.748 241.653 57.4959 241.653 55.3493C241.653 53.078 241.615 50.7684 241.538 48.4109C241.481 46.063 241.462 43.7534 241.462 41.4726V40.6293C241.462 39.8434 241.481 39.0768 241.538 38.3293C241.615 37.5913 241.653 36.8918 241.653 36.2209C241.778 35.943 241.778 35.6747 241.653 35.4159C241.519 35.138 241.519 34.9368 241.653 34.8026C241.778 34.4001 242.315 34.1893 243.263 34.1893V33.9976C243.925 33.9976 244.337 34.0647 244.49 34.1893C244.615 34.1893 244.682 34.2276 244.682 34.3043C244.682 34.3618 244.739 34.3809 244.873 34.3809C245.688 34.9463 246.301 35.2913 246.713 35.4159C247.375 35.9526 247.998 36.4318 248.592 36.8343C249.205 37.2176 249.78 37.6776 250.317 38.2143C250.978 38.7509 251.515 39.2684 251.927 39.7476C252.329 40.2076 252.741 40.6484 253.153 41.0509L253.767 41.6643C254.016 41.7984 254.246 41.8943 254.457 41.9709C254.658 42.0284 254.821 42.1913 254.955 42.4693C255.616 43.1401 256.258 43.9451 256.872 44.8843C257.485 45.833 258.06 46.638 258.597 47.2993L258.98 47.7209C259.133 47.8551 259.229 47.9126 259.287 47.9126C259.363 47.9126 259.402 47.9126 259.402 47.9126C259.651 48.1713 259.785 48.3726 259.785 48.5259L261.625 51.5159C261.874 51.928 262.104 52.3401 262.315 52.7426C262.516 53.1547 262.679 53.5668 262.813 53.9693C262.938 54.1034 263.005 54.2951 263.005 54.5443C263.82 56.1543 264.625 57.7834 265.42 59.4126C266.235 61.0226 266.915 62.6997 267.452 64.4343C267.576 64.693 267.605 65.0284 267.528 65.4309C267.471 65.843 267.509 66.3126 267.643 66.8493C267.797 66.9834 267.931 67.0793 268.065 67.1559C268.19 67.2326 268.257 67.4051 268.257 67.6543C268.535 68.1909 268.803 68.8043 269.062 69.4943C269.34 70.1651 269.541 70.8263 269.675 71.4876C269.924 72.8484 270.183 74.1997 270.442 75.5509C270.72 76.883 270.94 78.2151 271.093 79.5376V79.7676C271.343 81.6363 271.707 83.5147 272.167 85.4026C272.646 87.2713 272.953 89.1497 273.087 91.0376C273.24 91.1718 273.278 91.373 273.202 91.6509C273.125 91.9097 273.087 92.178 273.087 92.4559C273.777 98.1101 274.208 103.755 274.39 109.399C274.591 115.025 274.773 120.66 274.927 126.304C274.927 126.716 274.783 127.186 274.505 127.723H274.697C274.697 127.723 274.735 127.761 274.812 127.838C274.888 127.895 274.927 127.914 274.927 127.914L274.697 128.106C274.697 128.259 274.697 128.374 274.697 128.451C274.697 128.508 274.697 128.662 274.697 128.911C274.697 129.323 274.754 129.773 274.888 130.253C275.042 130.713 275.118 131.211 275.118 131.748V134.163C275.118 134.297 275.042 134.46 274.888 134.661C274.754 134.872 274.697 135.111 274.697 135.389C274.697 136.185 274.754 136.951 274.888 137.689C275.042 138.437 275.176 139.213 275.31 140.028C275.31 140.162 275.243 140.286 275.118 140.411C274.984 140.545 274.927 140.679 274.927 140.833C275.051 141.369 275.511 141.638 276.307 141.638C276.585 141.638 276.824 141.676 277.035 141.753C277.236 141.81 277.399 141.829 277.533 141.829C279.68 141.829 281.788 141.81 283.858 141.753C285.948 141.676 288.008 141.638 290.03 141.638C291.506 141.638 292.953 141.676 294.362 141.753C295.761 141.81 297.141 141.829 298.502 141.829L299.92 142.021C300.706 141.772 301.243 141.235 301.53 140.411C301.53 140.286 301.492 140.095 301.415 139.836C301.338 139.558 301.3 139.357 301.3 139.223C301.3 136.673 301.338 134.153 301.415 131.671C301.492 129.17 301.53 126.64 301.53 124.081C301.53 121.532 301.453 118.983 301.3 116.453C301.166 113.903 301.108 111.345 301.108 108.786C301.108 106.237 301.128 103.716 301.185 101.234C301.262 98.733 301.3 96.203 301.3 93.6443C301.3 87.6163 301.338 81.5884 301.415 75.5509C301.492 69.4943 301.53 63.4376 301.53 57.3809C301.53 55.1097 301.492 53.4326 301.415 52.3593C301.338 51.2668 301.262 50.1551 301.185 49.0243C301.128 47.8743 301.108 46.1684 301.108 43.8876C301.108 41.5876 301.128 39.9009 301.185 38.8276C301.262 37.7543 301.3 36.6618 301.3 35.5309C301.3 34.3809 301.3 32.7326 301.3 30.5859V17.2843C301.3 14.9843 301.338 13.2976 301.415 12.2243C301.492 11.1509 301.53 10.0584 301.53 8.92759C301.53 7.77759 301.53 6.12926 301.53 3.98259C301.53 3.70468 301.453 3.46509 301.3 3.25426C301.166 3.05301 301.108 2.89009 301.108 2.75593C301.108 2.21926 301.041 1.81676 300.917 1.52926C300.917 1.52926 300.773 1.40468 300.495 1.14593C300.361 1.02134 300.198 0.896761 299.997 0.762593C299.786 0.609259 299.556 0.532593 299.307 0.532593H287.615C285.871 0.532593 284.098 0.570926 282.287 0.647593C280.466 0.705092 278.683 0.724259 276.92 0.724259C276.786 0.724259 276.652 0.705092 276.498 0.647593C276.364 0.570926 276.173 0.532593 275.923 0.532593C275.387 0.820094 275.118 1.22259 275.118 1.75926C274.984 1.89343 274.946 2.05634 275.003 2.25759C275.08 2.46842 275.118 2.63134 275.118 2.75593V3.36926C275.118 3.36926 275.138 3.36926 275.195 3.36926C275.272 3.36926 275.31 3.36926 275.31 3.36926V3.56093C275.31 3.69509 275.272 3.79093 275.195 3.86759C275.138 3.94426 275.118 4.04968 275.118 4.17426C275.118 4.96968 275.08 5.73634 275.003 6.47426C274.946 7.22176 274.927 7.99801 274.927 8.81259C274.927 10.1447 274.927 11.5247 274.927 12.9526C274.927 14.3613 274.85 15.8084 274.697 17.2843C274.697 17.4184 274.735 17.5813 274.812 17.7826C274.888 17.9934 274.927 18.1563 274.927 18.2809C274.639 19.2297 274.17 19.6993 273.508 19.6993C272.972 19.6993 272.56 19.5651 272.282 19.2776C272.148 19.153 272.052 19.0284 271.975 18.8943C271.918 18.7409 271.755 18.6068 271.477 18.4726C270.528 17.2747 269.522 16.2684 268.448 15.4443L267.873 14.8309C267.586 14.5818 267.308 14.3518 267.03 14.1409C266.771 13.9397 266.513 13.7768 266.263 13.6426L262.622 11.0359C262.085 10.6334 261.443 10.1543 260.705 9.61759C259.958 9.08093 259.258 8.73593 258.597 8.58259C258.06 8.58259 257.715 8.52509 257.562 8.39093L256.987 7.77759C256.833 7.52843 256.651 7.37509 256.45 7.31759C256.268 7.24093 256.038 7.12593 255.76 6.97259C252.54 5.65009 249.176 4.57676 245.678 3.75259C243.532 3.09134 241.481 2.59301 239.545 2.25759C237.6 1.93176 235.558 1.68259 233.412 1.52926C233.258 1.52926 233.076 1.47176 232.875 1.33759C232.664 1.21301 232.434 1.08842 232.185 0.954259C230.441 0.800926 228.563 0.762593 226.55 0.839259C224.528 0.915926 222.573 0.954259 220.685 0.954259C220.273 0.954259 219.842 0.896761 219.382 0.762593C218.922 0.609259 218.481 0.532593 218.078 0.532593H216.852C216.718 0.532593 216.622 0.570926 216.545 0.647593C216.488 0.705092 216.325 0.724259 216.047 0.724259C215.663 1.01176 215.328 1.35676 215.05 1.75926C215.05 1.89343 215.069 2.05634 215.127 2.25759C215.203 2.46842 215.242 2.69842 215.242 2.94759C215.242 2.94759 215.175 2.98593 215.05 3.06259C214.916 3.12009 214.858 3.21593 214.858 3.36926C214.858 3.50343 214.878 3.59926 214.935 3.67593C215.012 3.73343 215.05 3.82926 215.05 3.98259C215.05 3.98259 215.05 4.17426 215.05 4.55759V19.4693C215.05 21.9034 215.05 24.3663 215.05 26.8676C215.05 29.3497 215.05 31.7934 215.05 34.1893C215.05 36.748 215.012 39.2397 214.935 41.6643C214.878 44.0697 214.858 46.5518 214.858 49.1009V63.8209C214.858 66.3797 214.916 68.8713 215.05 71.2959C215.175 73.7013 215.242 76.1834 215.242 78.7326V93.4526C215.242 96.0113 215.242 98.503 215.242 100.928C215.242 103.333 215.242 105.815 215.242 108.364C215.242 110.798 215.203 113.252 215.127 115.724C215.069 118.206 215.05 120.66 215.05 123.084C215.05 125.643 215.012 128.135 214.935 130.559C214.878 132.965 214.858 135.447 214.858 137.996L215.05 138.801C215.05 138.801 215.05 138.839 215.05 138.916C215.05 138.973 215.05 139.069 215.05 139.223L214.858 139.414C214.858 139.414 214.916 139.414 215.05 139.414C215.175 139.414 215.242 139.481 215.242 139.606C215.242 139.606 215.203 139.644 215.127 139.721C215.069 139.778 215.05 139.874 215.05 140.028L214.858 140.219C214.983 140.353 215.05 140.555 215.05 140.833C215.175 141.216 215.587 141.408 216.277 141.408C216.526 141.561 216.785 141.705 217.043 141.829C217.321 141.954 217.523 142.021 217.657 142.021C219.823 142.021 221.912 141.983 223.905 141.906C225.918 141.848 228.007 141.829 230.153 141.829C231.629 141.829 233.009 141.81 234.293 141.753C235.568 141.676 236.881 141.638 238.242 141.638Z" fill="#D1D1D1"/>
<path d="M392.143 71.2959V57.7643C392.143 55.493 392.162 53.2218 392.22 50.9409C392.297 48.6409 392.335 46.4176 392.335 44.2709C392.335 41.9997 392.373 39.7284 392.45 37.4476C392.527 35.1476 392.565 32.9243 392.565 30.7776V29.3593C392.565 27.4713 392.565 25.6218 392.565 23.8009C392.565 21.9897 392.565 20.1497 392.565 18.2809C392.565 16.2684 392.584 14.2463 392.642 12.2243C392.718 10.2118 392.488 8.18968 391.952 6.16759C391.415 3.89634 389.997 2.43009 387.697 1.75926C385.416 1.06926 383.537 0.666761 382.062 0.532593H371.405C370.715 0.532593 370.035 0.570926 369.373 0.647593C368.702 0.705092 368.032 0.800926 367.342 0.954259C366.805 0.954259 366.268 0.954259 365.732 0.954259C365.195 0.954259 364.658 1.02134 364.122 1.14593C363.71 1.14593 363.278 1.18426 362.818 1.26093C362.358 1.31842 361.917 1.33759 361.515 1.33759C360.978 1.47176 360.442 1.51009 359.905 1.45259C359.368 1.37593 358.755 1.40468 358.065 1.52926C357.27 1.68259 356.436 1.90301 355.573 2.18093C354.701 2.43968 353.791 2.69842 352.852 2.94759C352.315 3.08176 351.673 3.21593 350.935 3.36926C350.187 3.50343 349.488 3.70468 348.827 3.98259C348.415 4.11676 348.002 4.21259 347.6 4.28926C347.188 4.34676 346.795 4.50968 346.412 4.78759C345.31 5.17093 344.16 5.70759 342.962 6.39759C342.703 6.53176 342.435 6.65634 342.157 6.78093C341.898 6.91509 341.63 7.04926 341.352 7.20259C341.217 7.33676 340.892 7.39426 340.355 7.39426L338.515 8.39093C337.978 8.67843 337.442 9.08093 336.905 9.61759C336.368 10.1543 335.765 10.6334 335.103 11.0359C334.691 11.2947 334.279 11.5247 333.877 11.7259C333.493 11.9368 333.091 12.1668 332.688 12.4159C332.554 12.5693 332.42 12.7513 332.267 12.9526C332.132 13.1347 332.008 13.3647 331.883 13.6426C331.596 13.7768 331.251 13.978 330.848 14.2559C330.465 14.5147 330.13 14.783 329.852 15.0609C328.52 16.2684 327.245 17.543 326.018 18.8943L324.025 21.3093C323.737 21.568 323.498 21.9034 323.297 22.3059C323.115 22.718 322.885 23.1301 322.607 23.5326C322.472 23.7913 322.271 24.0597 321.993 24.3376C321.735 24.5963 321.466 24.8647 321.188 25.1426C321.054 25.4013 320.93 25.7368 320.805 26.1393C320.671 26.5513 320.47 26.9443 320.192 27.3276C319.904 27.8643 319.597 28.3818 319.272 28.8609C318.936 29.3209 318.639 29.8959 318.39 30.5859C318.237 30.9693 318.122 31.3718 318.045 31.7743C317.987 32.1863 317.834 32.5984 317.585 33.0009C317.297 33.6718 317.02 34.3713 316.742 35.1093C316.483 35.8568 316.224 36.5563 315.975 37.2176C315.438 38.5784 314.959 40.1213 314.557 41.8559C314.422 42.5268 314.221 43.2263 313.943 43.9643C313.656 44.7118 313.455 45.4113 313.33 46.0726C313.071 47.1747 312.87 48.3247 312.717 49.5226C312.582 50.7301 312.458 51.928 312.333 53.1259C312.333 53.6913 312.295 54.2376 312.218 54.7743C312.161 55.3109 312.142 55.8476 312.142 56.3843C311.988 56.9209 311.912 57.4193 311.912 57.8793C311.912 58.3393 311.845 58.8376 311.72 59.3743V63.0159C311.72 65.5747 311.72 68.1047 311.72 70.6059C311.72 73.088 311.72 75.5318 311.72 77.9276C311.72 80.4863 311.739 83.0163 311.797 85.5176C311.873 87.9997 311.912 90.5201 311.912 93.0693C311.912 95.5993 311.845 98.1197 311.72 100.621C311.586 103.103 311.528 105.623 311.528 108.173V123.276C311.528 125.835 311.528 128.365 311.528 130.866C311.528 133.348 311.528 135.868 311.528 138.418C311.528 138.801 311.653 139.405 311.912 140.219C311.912 140.756 312.314 141.158 313.138 141.408C313.541 141.561 314.145 141.638 314.94 141.638C318.313 141.638 321.629 141.676 324.907 141.753C328.203 141.81 331.538 141.829 334.912 141.829C335.314 141.829 335.717 141.848 336.1 141.906C336.502 141.983 336.915 142.021 337.327 142.021C338.525 141.772 339.205 141.168 339.358 140.219C339.358 139.941 339.32 139.711 339.243 139.529C339.167 139.328 339.128 139.146 339.128 138.993C339.128 135.907 339.09 132.783 339.013 129.639C338.956 126.477 338.937 123.343 338.937 120.248C338.937 119.328 338.956 118.369 339.013 117.373C339.09 116.357 339.128 115.37 339.128 114.421C339.128 113.76 339.205 113.29 339.358 113.003C339.358 112.341 339.684 112.006 340.355 112.006C340.604 111.881 341.007 111.814 341.543 111.814C345.041 111.814 348.501 111.881 351.932 112.006C355.353 112.14 358.812 112.198 362.32 112.198H363.508C363.786 112.332 364.026 112.466 364.237 112.619C364.438 112.753 364.601 112.945 364.735 113.194C364.735 113.348 364.754 113.491 364.812 113.616C364.888 113.75 364.927 113.951 364.927 114.229C364.927 116.251 364.86 118.235 364.735 120.171C364.601 122.116 364.543 124.1 364.543 126.113C364.543 128.135 364.505 130.118 364.428 132.054C364.352 134 364.313 135.983 364.313 137.996C364.313 138.283 364.371 138.628 364.505 139.031C364.658 139.414 364.792 139.75 364.927 140.028C364.927 140.948 365.272 141.551 365.962 141.829C366.211 141.954 366.546 141.954 366.958 141.829C367.361 141.705 367.696 141.638 367.955 141.638C371.041 141.638 374.06 141.705 377.002 141.829C379.963 141.954 382.924 142.021 385.895 142.021C386.556 142.021 387.285 142.021 388.08 142.021C388.895 142.021 389.652 141.954 390.342 141.829H391.147C392.086 141.551 392.565 141.015 392.565 140.219C392.565 139.941 392.488 139.635 392.335 139.299C392.201 138.973 392.143 138.743 392.143 138.609C392.143 136.309 392.162 134.028 392.22 131.748C392.297 129.476 392.335 127.263 392.335 125.116C392.335 122.816 392.373 120.535 392.45 118.254C392.527 115.954 392.565 113.731 392.565 111.584V98.0909C392.565 95.8197 392.527 93.5676 392.45 91.3443C392.373 89.1209 392.335 86.9359 392.335 84.7893C392.335 82.518 392.297 80.2468 392.22 77.9659C392.162 75.6659 392.143 73.4426 392.143 71.2959ZM364.927 56.5759V69.4559C364.927 71.6313 364.86 73.7684 364.735 75.8576C364.601 77.9276 364.543 80.103 364.543 82.3743L364.313 83.1793C364.179 83.7159 363.911 84.0513 363.508 84.1759C363.374 84.1759 363.211 84.2143 363.01 84.2909C362.799 84.3484 362.569 84.3676 362.32 84.3676C358.947 84.5209 355.506 84.5976 352.008 84.5976C348.53 84.5976 345.041 84.5976 341.543 84.5976C341.007 84.5976 340.604 84.5209 340.355 84.3676C339.684 84.3676 339.358 84.0418 339.358 83.3709C339.071 82.8343 338.937 82.3647 338.937 81.9526V67.6543C338.937 66.5809 338.994 65.5459 339.128 64.5493C339.282 63.5334 339.358 62.5463 339.358 61.5976V58.3776C339.483 57.8409 339.512 57.3426 339.435 56.8826C339.377 56.4034 339.358 55.8859 339.358 55.3493C339.483 54.2759 339.607 53.2793 339.742 52.3593C339.866 51.4201 340.01 50.4713 340.163 49.5226C340.412 48.708 340.671 47.903 340.93 47.1076C341.208 46.293 341.486 45.488 341.773 44.6926C342.022 44.0026 342.281 43.4659 342.54 43.0826C342.818 42.6801 343.096 42.2009 343.383 41.6643C343.632 40.9743 343.93 40.2363 344.265 39.4409C344.591 38.6263 344.965 37.9459 345.377 37.4093C345.779 36.8726 346.22 36.4126 346.68 36.0293C347.159 35.6268 347.677 35.2147 348.213 34.8026C348.875 34.1413 349.497 33.5376 350.092 33.0009C350.705 32.4643 351.414 31.9947 352.238 31.5826C352.516 31.458 352.852 31.3526 353.235 31.2759C353.637 31.1993 353.982 31.1034 354.27 30.9693C354.519 30.8447 354.855 30.7201 355.267 30.5859C355.669 30.4326 356.072 30.2984 356.455 30.1643C356.992 30.0397 357.528 29.9151 358.065 29.7809C358.621 29.6276 359.177 29.4934 359.713 29.3593C360.499 29.3593 361.17 29.3018 361.707 29.1676C361.985 29.1676 362.215 29.1101 362.397 28.9759C362.598 28.8226 362.837 28.7459 363.125 28.7459C363.527 28.7459 363.93 28.9568 364.313 29.3593C364.467 29.6468 364.543 30.0493 364.543 30.5859V31.1609C364.543 33.3076 364.562 35.4351 364.62 37.5243C364.697 39.5943 364.735 41.7218 364.735 43.8876C364.735 46.0343 364.754 48.1618 364.812 50.2509C364.888 52.3209 364.927 54.4293 364.927 56.5759Z" fill="#D1D1D1"/>
<path d="M28.4794 295.4L41.3977 295.208V295.4H54.0861L66.9661 294.978H79.6927L80.4977 295.208L81.0727 294.978L82.2994 293.982L82.4911 293.177V271.403L82.1077 270.215L81.6861 269.602L80.8811 268.988H67.5794L43.0077 269.41L40.7844 269.18L39.1744 267.8V266.995L39.9794 264.58L40.3627 263.737L40.7844 261.552L41.9727 259.137L43.1994 256.3L44.0044 253.463L44.6177 252.467L45.1927 250.665L46.8411 246.832L48.0294 244.417L48.6427 241.197L50.4444 238.168L50.8661 236.328L53.8944 227.895L54.4694 226.86L55.2744 224.637L56.0794 222.222L57.1144 220.842L57.3061 219.423L58.1111 217.813L58.7244 214.977L59.7211 213.367L60.1427 212.37L61.3311 208.728L61.5227 207.732L62.3277 205.892L63.1327 203.285L64.5511 200.257L65.3561 198.647L65.9694 196.845L66.3911 195.235L67.1961 193.625L67.5794 192.015L68.5761 189.37L69.3811 187.377L70.6077 184.962L70.9911 182.93L71.6044 182.125L72.6394 179.097L73.0227 177.487L74.2494 174.65L74.8244 173.04L76.2427 170.625L76.8561 167.405L77.6611 165.182L78.6577 164.377L79.0794 162.575L80.6894 158.55L81.3027 156.327V155.522L80.8811 154.525H51.8627L38.3694 154.295L11.5361 154.717L10.3477 154.908L9.12108 155.522L9.54275 156.518L9.35108 167.597L8.92941 178.483L9.12108 179.518L10.1561 180.323L11.3444 180.898L12.3411 180.323L24.4544 180.707L36.5294 180.323L41.3977 180.707L42.5861 181.128L43.3911 181.933L43.1994 183.735L42.7777 184.732L41.5894 187.377L40.7844 189.37L39.7877 192.015L38.3694 195.848L36.7594 199.643L35.3411 203.707L33.7311 207.54L32.9261 210.338L30.7027 215.168V216.395L29.7061 218.388L28.9011 221.033L27.8661 223.832L26.8694 225.672L25.8727 228.087L25.2594 230.885L24.2627 232.725L22.8444 236.558L21.6177 240.583L19.8161 244.608L18.3977 247.445L18.0144 250.052L16.7877 252.083L15.9827 254.498L14.3727 258.332L12.9544 262.127L11.7661 264.963L10.7311 267.8L10.1561 269.793L9.12108 272.438L7.70275 275.237L7.31941 276.847L6.09275 279.492L5.51775 281.293L4.71275 284.322L3.90775 286.928L1.68441 291.375L1.26275 293.79L0.649414 293.982L1.68441 294.978L2.68108 295.4L15.5994 294.978L28.4794 295.4Z" fill="#D1D1D1"/>
<path d="M164.868 299.157C165.405 299.157 165.903 299.214 166.363 299.348C166.843 299.473 167.36 299.473 167.897 299.348C168.146 299.348 168.481 299.368 168.893 299.425C169.296 299.502 169.641 299.473 169.928 299.348C170.178 299.348 170.475 299.281 170.81 299.157C171.136 299.023 171.443 298.965 171.73 298.965L174.758 298.352C175.42 298.218 176.081 298.16 176.752 298.16C177.442 298.16 178.113 298.083 178.783 297.93C179.723 297.681 180.662 297.422 181.582 297.163C182.521 296.885 183.47 296.608 184.418 296.32C185.616 296.071 186.795 295.735 187.945 295.323C189.095 294.921 190.207 294.509 191.28 294.097C191.683 293.848 192.123 293.713 192.583 293.713C193.043 293.713 193.475 293.656 193.887 293.522C194.423 293.244 194.96 292.975 195.497 292.717C196.033 292.439 196.57 292.238 197.107 292.103C197.509 291.825 197.845 291.519 198.103 291.183C198.381 290.858 198.726 290.551 199.138 290.263C199.675 290.263 200.068 290.206 200.327 290.072C200.883 289.823 201.362 289.487 201.745 289.075C202.148 288.673 202.627 288.337 203.163 288.078C203.825 287.676 204.524 287.264 205.272 286.852C206.01 286.449 206.728 285.97 207.418 285.433L210.408 283.018C210.686 282.769 210.993 282.539 211.328 282.328C211.654 282.127 211.961 281.964 212.248 281.83C212.373 281.677 212.498 281.475 212.632 281.217C212.756 280.939 212.9 280.738 213.053 280.603C213.303 280.354 213.638 280.163 214.05 280.028C214.453 279.875 214.721 279.674 214.855 279.415C215.392 279.013 215.861 278.533 216.273 277.997C216.676 277.46 217.155 276.923 217.692 276.387C217.941 276.109 218.2 275.908 218.458 275.773C218.736 275.649 218.938 275.505 219.072 275.352C219.628 274.566 220.107 273.962 220.49 273.55C220.768 273.148 221.036 272.707 221.295 272.247C221.573 271.768 221.841 271.327 222.1 270.943C222.378 270.407 222.713 269.975 223.097 269.64C223.499 269.285 223.911 268.835 224.323 268.298C224.726 267.637 225.1 266.976 225.435 266.305C225.761 265.615 226.135 265.002 226.547 264.465C226.949 263.804 227.352 263.143 227.735 262.472C228.138 261.81 228.55 261.207 228.962 260.67C229.498 259.731 229.93 258.82 230.265 257.948C230.591 257.057 230.965 256.214 231.377 255.418L232.603 252.773C232.728 252.39 232.814 252.035 232.872 251.7C232.948 251.345 233.063 250.972 233.217 250.588C233.466 249.898 233.725 249.228 233.983 248.557C234.261 247.895 234.463 247.215 234.597 246.525C234.875 245.864 235.076 245.135 235.21 244.34C235.335 243.525 235.478 242.72 235.632 241.925C235.756 241.388 235.881 240.919 236.015 240.507C236.14 240.104 236.283 239.692 236.437 239.28V237.057C236.686 236.271 236.82 235.667 236.82 235.255V233.837C236.945 233.588 237.05 233.329 237.127 233.07C237.203 232.792 237.242 232.514 237.242 232.227C237.366 231.824 237.433 231.383 237.433 230.923C237.433 230.463 237.433 230.032 237.433 229.62C237.433 229.083 237.357 228.614 237.203 228.202C237.069 227.799 237.012 227.387 237.012 226.975C237.012 226.592 237.108 226.237 237.318 225.902C237.52 225.547 237.558 225.24 237.433 224.982C237.433 224.445 237.395 223.947 237.318 223.487C237.261 223.008 237.242 222.557 237.242 222.145V221.953C237.242 221.675 237.203 221.34 237.127 220.957C237.05 220.554 237.012 220.209 237.012 219.922C237.012 219.673 236.878 219.27 236.628 218.733C236.628 218.197 236.59 217.698 236.513 217.238C236.456 216.759 236.437 216.309 236.437 215.897C236.283 215.36 236.207 214.862 236.207 214.402C236.207 213.923 236.14 213.405 236.015 212.868C235.881 212.207 235.785 211.508 235.708 210.76C235.651 210.022 235.488 209.323 235.21 208.652C235.076 207.99 234.875 207.291 234.597 206.543C234.338 205.805 234.07 205.029 233.792 204.205C233.533 203.544 233.265 202.815 232.987 202.02C232.728 201.205 232.46 200.468 232.182 199.797C232.048 199.107 231.846 198.493 231.568 197.957C231.31 197.42 231.041 196.883 230.763 196.347C230.629 195.81 230.399 195.312 230.073 194.852C229.738 194.373 229.431 193.855 229.153 193.318C229.019 192.782 228.818 192.283 228.54 191.823C228.281 191.363 228.023 190.932 227.773 190.52L225.933 188.105C225.675 187.415 225.339 186.878 224.937 186.495C224.525 186.093 224.113 185.613 223.71 185.077L221.908 182.662C221.65 182.384 221.448 182.048 221.295 181.665C221.161 181.263 220.969 180.918 220.72 180.63C220.183 179.844 219.771 179.308 219.493 179.02C219.206 178.771 218.899 178.503 218.573 178.215C218.238 177.937 217.941 177.736 217.692 177.602C217.538 177.353 217.423 177.123 217.347 176.912C217.289 176.71 217.136 176.548 216.887 176.413L215.468 175.187C214.932 174.784 214.184 174.113 213.245 173.193C212.833 172.915 212.229 172.369 211.443 171.545L209.22 169.743C208.683 169.207 208.147 168.708 207.61 168.248C207.073 167.769 206.537 167.328 206 166.945C205.463 166.667 204.927 166.399 204.39 166.14C203.853 165.862 203.374 165.584 202.972 165.297C202.301 164.76 201.563 164.329 200.748 163.993C199.924 163.668 199.186 163.294 198.525 162.882C197.988 162.633 197.413 162.268 196.8 161.808C196.206 161.329 195.583 160.955 194.922 160.697L191.663 159.47C191.28 159.345 190.878 159.183 190.475 158.972C190.063 158.77 189.593 158.608 189.057 158.473C187.313 157.659 185.377 157.045 183.23 156.633C182.818 156.509 182.406 156.442 182.003 156.442C181.591 156.442 181.256 156.384 181.007 156.25C180.183 155.972 179.406 155.809 178.668 155.752C177.921 155.675 177.154 155.579 176.368 155.445C175.956 155.445 175.544 155.349 175.142 155.138C174.73 154.937 174.337 154.832 173.953 154.832C173.541 154.707 173.129 154.678 172.727 154.755C172.315 154.813 171.979 154.774 171.73 154.64H170.312C169.775 154.64 169.258 154.621 168.778 154.563C168.318 154.487 167.82 154.448 167.283 154.448C167.025 154.295 166.689 154.257 166.287 154.333C165.875 154.41 165.539 154.448 165.29 154.448H164.868C164.456 154.448 164.044 154.448 163.642 154.448C163.258 154.448 162.856 154.448 162.453 154.448C162.319 154.448 162.223 154.515 162.147 154.64C162.07 154.774 161.965 154.832 161.84 154.832H159.425C159.166 154.966 158.898 155.004 158.62 154.947C158.361 154.87 158.093 154.899 157.815 155.023C157.556 155.023 157.221 155.004 156.818 154.947C156.406 154.87 156.061 154.899 155.783 155.023C155.247 155.023 154.768 155.1 154.365 155.253C153.982 155.388 153.579 155.512 153.177 155.637C152.765 155.637 152.353 155.713 151.95 155.867C151.567 156.001 151.231 156.125 150.953 156.25C148.136 156.662 145.318 157.266 142.482 158.052C141.945 158.186 141.447 158.32 140.987 158.473C140.527 158.608 140.028 158.799 139.492 159.048C139.08 159.202 138.668 159.422 138.265 159.7C137.853 159.959 137.441 160.218 137.038 160.467C136.118 160.754 135.208 161.061 134.317 161.387C133.445 161.722 132.611 162.096 131.825 162.498L127.57 164.913C126.899 165.325 126.228 165.795 125.538 166.332C124.868 166.868 124.206 167.405 123.545 167.942C123.008 168.354 122.472 168.766 121.935 169.168C121.398 169.552 120.862 169.954 120.325 170.357L118.715 170.97C118.428 171.104 118.188 171.305 117.987 171.583C117.805 171.842 117.575 172.11 117.297 172.388C116.76 172.772 116.281 173.213 115.878 173.692C115.495 174.152 115.093 174.593 114.69 174.995C114.153 175.407 113.617 175.838 113.08 176.298C112.543 176.758 112.007 177.257 111.47 177.793C111.47 177.793 111.489 177.832 111.547 177.908C111.623 177.985 111.662 178.09 111.662 178.215C111.374 178.503 111.096 178.848 110.818 179.25C110.56 179.633 110.301 179.969 110.052 180.247C109.64 180.783 109.17 181.224 108.633 181.55C108.097 181.885 107.618 182.317 107.215 182.853C106.678 183.649 106.142 184.454 105.605 185.268C105.068 186.093 104.532 186.898 103.995 187.683C103.458 188.632 102.979 189.581 102.577 190.52C102.193 191.469 101.733 192.398 101.197 193.318C100.909 193.855 100.603 194.334 100.277 194.737C99.9414 195.149 99.6347 195.618 99.3568 196.155C99.098 196.692 98.868 197.334 98.6668 198.072C98.4559 198.819 98.2164 199.519 97.9385 200.18C97.8043 200.717 97.5359 201.292 97.1335 201.905C96.7501 202.499 96.4147 203.132 96.1368 203.822C96.0026 204.493 95.9068 205.163 95.8301 205.853C95.7726 206.524 95.6097 207.185 95.3318 207.847C95.1976 208.383 94.9964 208.92 94.7185 209.457C94.4597 209.993 94.268 210.597 94.1435 211.258C93.9901 211.67 93.9135 212.083 93.9135 212.485C93.9135 212.897 93.8464 213.233 93.7218 213.482C93.7218 213.769 93.6451 214.047 93.4918 214.325C93.3576 214.584 93.3001 214.843 93.3001 215.092C93.1659 215.628 93.1276 216.165 93.1851 216.702C93.2618 217.238 93.233 217.775 93.1085 218.312C93.1085 218.848 93.003 219.385 92.8018 219.922C92.591 220.458 92.4951 221.072 92.4951 221.762V224.368C92.4951 224.503 92.4951 224.665 92.4951 224.867C92.4951 225.078 92.4951 225.317 92.4951 225.595V225.978C92.4951 226.266 92.5335 226.573 92.6101 226.898C92.6868 227.234 92.7251 227.531 92.7251 227.78V228.202C92.7251 228.336 92.7443 228.47 92.8018 228.623C92.8785 228.758 92.9168 228.882 92.9168 229.007C92.9168 229.141 92.8401 229.38 92.6868 229.735C92.5526 230.07 92.4951 230.368 92.4951 230.617C92.6485 230.904 92.6868 231.211 92.6101 231.537C92.5335 231.872 92.4951 232.246 92.4951 232.648L93.1085 235.063C93.1085 235.198 93.1276 235.36 93.1851 235.562C93.2618 235.773 93.3001 236.003 93.3001 236.252C93.4535 236.405 93.4535 236.625 93.3001 236.903C93.1659 237.162 93.1659 237.421 93.3001 237.67C93.3001 238.082 93.3576 238.494 93.4918 238.897C93.6451 239.28 93.7793 239.615 93.9135 239.893C94.0668 240.43 94.1435 241.005 94.1435 241.618C94.1435 242.213 94.201 242.768 94.3351 243.305C94.5843 244.378 94.8814 245.471 95.2168 246.563C95.5714 247.637 95.9451 248.71 96.3285 249.783L98.1685 254.192C98.4176 254.728 98.6093 255.246 98.7435 255.725C98.8968 256.185 99.031 256.626 99.1651 257.028C99.7018 257.977 100.171 258.926 100.583 259.865C100.986 260.785 101.465 261.724 102.002 262.663L104.187 266.688C104.465 267.225 104.8 267.743 105.183 268.222C105.586 268.682 105.998 269.18 106.41 269.717L108.633 272.745C108.911 273.157 109.285 273.502 109.745 273.78C110.205 274.039 110.569 274.374 110.857 274.777C111.259 275.16 111.595 275.563 111.853 275.965C112.131 276.377 112.4 276.789 112.658 277.192C112.936 277.326 113.176 277.422 113.387 277.498C113.588 277.556 113.751 277.642 113.885 277.767C114.01 277.92 114.01 278.064 113.885 278.188C113.751 278.323 113.751 278.38 113.885 278.38C114.01 278.514 114.096 278.553 114.153 278.495C114.23 278.418 114.345 278.447 114.498 278.572C114.748 278.725 115.006 278.974 115.265 279.3C115.543 279.635 115.821 279.942 116.108 280.22C116.894 281.015 117.498 281.552 117.91 281.83L120.938 284.015C121.878 284.705 122.817 285.357 123.737 285.97C124.676 286.564 125.625 287.187 126.573 287.848C127.647 288.385 128.682 288.96 129.678 289.573C130.694 290.187 131.681 290.762 132.63 291.298C133.703 291.969 134.978 292.563 136.463 293.1C137.249 293.512 138.045 293.886 138.84 294.212C139.655 294.547 140.469 294.854 141.293 295.132C141.696 295.266 142.098 295.39 142.482 295.515C142.884 295.649 143.296 295.783 143.708 295.937C144.37 296.195 145.098 296.425 145.893 296.627C146.708 296.838 147.465 297.068 148.155 297.317L152.563 297.93C153.1 298.083 153.57 298.179 153.982 298.237C154.384 298.313 154.863 298.409 155.4 298.543C155.803 298.543 156.205 298.601 156.588 298.735C156.991 298.888 157.403 298.965 157.815 298.965C158.352 299.09 158.85 299.176 159.31 299.233C159.789 299.31 160.307 299.348 160.843 299.348C161.505 299.348 162.147 299.281 162.76 299.157C163.373 299.023 163.948 298.965 164.485 298.965C164.61 298.965 164.696 298.984 164.753 299.042C164.83 299.118 164.868 299.157 164.868 299.157ZM167.475 271.327C165.194 271.327 163.086 271.164 161.15 270.828C159.205 270.503 157.288 270.196 155.4 269.908C153.253 269.372 151.27 268.778 149.458 268.107C147.638 267.445 145.788 266.64 143.9 265.692C140.421 263.804 137.201 261.456 134.24 258.638C132.879 257.163 131.528 255.648 130.177 254.115C128.845 252.563 127.647 250.914 126.573 249.17C125.625 247.407 124.82 245.634 124.158 243.842C123.488 242.03 122.893 240.181 122.357 238.283C121.82 236.395 121.341 234.517 120.938 232.648C120.526 230.76 120.325 228.805 120.325 226.783C120.325 224.924 120.555 223.017 121.015 221.072C121.494 219.107 122.012 217.181 122.548 215.283C122.951 213.549 123.43 211.872 123.967 210.262C124.503 208.652 125.165 207.109 125.96 205.623C127.033 203.735 128.241 201.924 129.602 200.18C130.953 198.445 132.362 196.835 133.818 195.35C135.17 193.999 136.55 192.782 137.958 191.708C139.358 190.635 140.872 189.629 142.482 188.68C144.111 187.76 145.74 186.907 147.35 186.112C148.96 185.297 150.628 184.607 152.372 184.042C156.665 182.844 160.891 182.24 165.06 182.24C166.536 182.24 168.021 182.345 169.507 182.547C170.983 182.758 172.468 182.988 173.953 183.237C177.039 183.773 180.135 184.789 183.23 186.265C184.84 186.955 186.45 187.779 188.06 188.718C189.67 189.638 191.136 190.635 192.468 191.708C193.408 192.398 194.28 193.184 195.075 194.047C195.89 194.919 196.704 195.829 197.528 196.768C200.614 200.123 203.173 203.879 205.195 208.038C206.671 211.134 207.811 214.095 208.607 216.932C208.885 218.676 209.115 220.42 209.297 222.183C209.498 223.928 209.536 225.662 209.412 227.397C209.278 233.3 208.07 238.81 205.77 243.918C204.85 246.477 203.566 248.902 201.937 251.202C200.327 253.483 198.525 255.687 196.532 257.833C194.356 259.855 192.2 261.734 190.053 263.468C187.907 265.213 185.693 266.631 183.422 267.723C180.863 268.931 178.247 269.793 175.563 270.33C172.88 270.867 170.178 271.202 167.475 271.327Z" fill="#D1D1D1"/>
<path d="M270.888 295.4V295.783C271.137 295.783 271.473 295.783 271.885 295.783C272.287 295.783 272.623 295.716 272.882 295.592C273.418 295.592 273.821 295.266 274.108 294.595C274.233 294.442 274.233 294.279 274.108 294.097C273.974 293.895 273.917 293.713 273.917 293.56V278.073C273.917 275.773 273.974 273.454 274.108 271.097C274.233 268.749 274.3 266.497 274.3 264.35V250.435C274.3 248.164 274.3 245.854 274.3 243.497C274.3 241.149 274.3 238.897 274.3 236.75C274.3 234.45 274.262 232.131 274.185 229.773C274.127 227.425 274.108 225.116 274.108 222.835C274.108 220.535 274.127 218.216 274.185 215.858C274.262 213.51 274.3 211.258 274.3 209.112C274.3 206.84 274.262 204.531 274.185 202.173C274.127 199.825 274.108 197.516 274.108 195.235V194.392C274.108 193.606 274.127 192.839 274.185 192.092C274.262 191.354 274.3 190.654 274.3 189.983C274.424 189.705 274.424 189.437 274.3 189.178C274.166 188.9 274.166 188.699 274.3 188.565C274.424 188.163 274.961 187.952 275.91 187.952V187.76C276.571 187.76 276.983 187.827 277.137 187.952C277.261 187.952 277.328 187.99 277.328 188.067C277.328 188.124 277.386 188.143 277.52 188.143C278.334 188.709 278.948 189.054 279.36 189.178C280.021 189.715 280.644 190.194 281.238 190.597C281.852 190.98 282.427 191.44 282.963 191.977C283.624 192.513 284.161 193.031 284.573 193.51C284.976 193.97 285.388 194.411 285.8 194.813L286.413 195.427C286.662 195.561 286.892 195.657 287.103 195.733C287.304 195.791 287.467 195.954 287.602 196.232C288.263 196.903 288.905 197.708 289.518 198.647C290.132 199.595 290.707 200.4 291.243 201.062L291.627 201.483C291.78 201.618 291.876 201.675 291.933 201.675C292.01 201.675 292.048 201.675 292.048 201.675C292.297 201.934 292.432 202.135 292.432 202.288L294.272 205.278C294.521 205.69 294.751 206.103 294.962 206.505C295.163 206.917 295.326 207.329 295.46 207.732C295.584 207.866 295.652 208.058 295.652 208.307C296.466 209.917 297.271 211.546 298.067 213.175C298.881 214.785 299.562 216.462 300.098 218.197C300.223 218.455 300.252 218.791 300.175 219.193C300.117 219.605 300.156 220.075 300.29 220.612C300.443 220.746 300.577 220.842 300.712 220.918C300.836 220.995 300.903 221.168 300.903 221.417C301.181 221.953 301.449 222.567 301.708 223.257C301.986 223.928 302.187 224.589 302.322 225.25C302.571 226.611 302.829 227.962 303.088 229.313C303.366 230.645 303.587 231.978 303.74 233.3V233.53C303.989 235.399 304.353 237.277 304.813 239.165C305.292 241.034 305.599 242.912 305.733 244.8C305.887 244.934 305.925 245.135 305.848 245.413C305.772 245.672 305.733 245.94 305.733 246.218C306.423 251.873 306.854 257.517 307.037 263.162C307.238 268.787 307.42 274.422 307.573 280.067C307.573 280.479 307.429 280.948 307.152 281.485H307.343C307.343 281.485 307.382 281.523 307.458 281.6C307.535 281.658 307.573 281.677 307.573 281.677L307.343 281.868C307.343 282.022 307.343 282.137 307.343 282.213C307.343 282.271 307.343 282.424 307.343 282.673C307.343 283.085 307.401 283.536 307.535 284.015C307.688 284.475 307.765 284.973 307.765 285.51V287.925C307.765 288.059 307.688 288.222 307.535 288.423C307.401 288.634 307.343 288.874 307.343 289.152C307.343 289.947 307.401 290.714 307.535 291.452C307.688 292.199 307.822 292.975 307.957 293.79C307.957 293.924 307.889 294.049 307.765 294.173C307.631 294.308 307.573 294.442 307.573 294.595C307.698 295.132 308.158 295.4 308.953 295.4C309.231 295.4 309.471 295.438 309.682 295.515C309.883 295.573 310.046 295.592 310.18 295.592C312.327 295.592 314.435 295.573 316.505 295.515C318.594 295.438 320.654 295.4 322.677 295.4C324.152 295.4 325.599 295.438 327.008 295.515C328.407 295.573 329.787 295.592 331.148 295.592L332.567 295.783C333.352 295.534 333.889 294.998 334.177 294.173C334.177 294.049 334.138 293.857 334.062 293.598C333.985 293.32 333.947 293.119 333.947 292.985C333.947 290.436 333.985 287.915 334.062 285.433C334.138 282.932 334.177 280.402 334.177 277.843C334.177 275.294 334.1 272.745 333.947 270.215C333.812 267.666 333.755 265.107 333.755 262.548C333.755 259.999 333.774 257.479 333.832 254.997C333.908 252.495 333.947 249.965 333.947 247.407C333.947 241.379 333.985 235.351 334.062 229.313C334.138 223.257 334.177 217.2 334.177 211.143C334.177 208.872 334.138 207.195 334.062 206.122C333.985 205.029 333.908 203.918 333.832 202.787C333.774 201.637 333.755 199.931 333.755 197.65C333.755 195.35 333.774 193.663 333.832 192.59C333.908 191.517 333.947 190.424 333.947 189.293C333.947 188.143 333.947 186.495 333.947 184.348V171.047C333.947 168.747 333.985 167.06 334.062 165.987C334.138 164.913 334.177 163.821 334.177 162.69C334.177 161.54 334.177 159.892 334.177 157.745C334.177 157.467 334.1 157.228 333.947 157.017C333.812 156.815 333.755 156.653 333.755 156.518C333.755 155.982 333.688 155.579 333.563 155.292C333.563 155.292 333.419 155.167 333.142 154.908C333.007 154.784 332.844 154.659 332.643 154.525C332.432 154.372 332.202 154.295 331.953 154.295H320.262C318.517 154.295 316.744 154.333 314.933 154.41C313.112 154.468 311.33 154.487 309.567 154.487C309.432 154.487 309.298 154.468 309.145 154.41C309.011 154.333 308.819 154.295 308.57 154.295C308.033 154.583 307.765 154.985 307.765 155.522C307.631 155.656 307.592 155.819 307.65 156.02C307.727 156.231 307.765 156.394 307.765 156.518V157.132C307.765 157.132 307.784 157.132 307.842 157.132C307.918 157.132 307.957 157.132 307.957 157.132V157.323C307.957 157.458 307.918 157.553 307.842 157.63C307.784 157.707 307.765 157.812 307.765 157.937C307.765 158.732 307.727 159.499 307.65 160.237C307.592 160.984 307.573 161.76 307.573 162.575C307.573 163.907 307.573 165.287 307.573 166.715C307.573 168.124 307.497 169.571 307.343 171.047C307.343 171.181 307.382 171.344 307.458 171.545C307.535 171.756 307.573 171.919 307.573 172.043C307.286 172.992 306.816 173.462 306.155 173.462C305.618 173.462 305.206 173.328 304.928 173.04C304.794 172.915 304.698 172.791 304.622 172.657C304.564 172.503 304.401 172.369 304.123 172.235C303.174 171.037 302.168 170.031 301.095 169.207L300.52 168.593C300.232 168.344 299.954 168.114 299.677 167.903C299.418 167.702 299.159 167.539 298.91 167.405L295.268 164.798C294.732 164.396 294.089 163.917 293.352 163.38C292.604 162.843 291.904 162.498 291.243 162.345C290.707 162.345 290.362 162.288 290.208 162.153L289.633 161.54C289.48 161.291 289.298 161.138 289.097 161.08C288.914 161.003 288.684 160.888 288.407 160.735C285.187 159.413 281.823 158.339 278.325 157.515C276.178 156.854 274.127 156.355 272.192 156.02C270.246 155.694 268.205 155.445 266.058 155.292C265.905 155.292 265.723 155.234 265.522 155.1C265.311 154.975 265.081 154.851 264.832 154.717C263.087 154.563 261.209 154.525 259.197 154.602C257.174 154.678 255.219 154.717 253.332 154.717C252.919 154.717 252.488 154.659 252.028 154.525C251.568 154.372 251.127 154.295 250.725 154.295H249.498C249.364 154.295 249.268 154.333 249.192 154.41C249.134 154.468 248.971 154.487 248.693 154.487C248.31 154.774 247.974 155.119 247.697 155.522C247.697 155.656 247.716 155.819 247.773 156.02C247.85 156.231 247.888 156.461 247.888 156.71C247.888 156.71 247.821 156.748 247.697 156.825C247.562 156.883 247.505 156.978 247.505 157.132C247.505 157.266 247.524 157.362 247.582 157.438C247.658 157.496 247.697 157.592 247.697 157.745C247.697 157.745 247.697 157.937 247.697 158.32V173.232C247.697 175.666 247.697 178.129 247.697 180.63C247.697 183.112 247.697 185.556 247.697 187.952C247.697 190.51 247.658 193.002 247.582 195.427C247.524 197.832 247.505 200.314 247.505 202.863V217.583C247.505 220.142 247.562 222.634 247.697 225.058C247.821 227.464 247.888 229.946 247.888 232.495V247.215C247.888 249.774 247.888 252.265 247.888 254.69C247.888 257.095 247.888 259.578 247.888 262.127C247.888 264.561 247.85 267.014 247.773 269.487C247.716 271.969 247.697 274.422 247.697 276.847C247.697 279.405 247.658 281.897 247.582 284.322C247.524 286.727 247.505 289.209 247.505 291.758L247.697 292.563C247.697 292.563 247.697 292.602 247.697 292.678C247.697 292.736 247.697 292.832 247.697 292.985L247.505 293.177C247.505 293.177 247.562 293.177 247.697 293.177C247.821 293.177 247.888 293.244 247.888 293.368C247.888 293.368 247.85 293.407 247.773 293.483C247.716 293.541 247.697 293.637 247.697 293.79L247.505 293.982C247.629 294.116 247.697 294.317 247.697 294.595C247.821 294.978 248.233 295.17 248.923 295.17C249.172 295.323 249.431 295.467 249.69 295.592C249.968 295.716 250.169 295.783 250.303 295.783C252.469 295.783 254.558 295.745 256.552 295.668C258.564 295.611 260.653 295.592 262.8 295.592C264.276 295.592 265.656 295.573 266.94 295.515C268.214 295.438 269.527 295.4 270.888 295.4Z" fill="#D1D1D1"/>
<path d="M344.175 223.461C344.175 224.534 344.175 225.627 344.175 226.719C344.175 227.793 344.251 228.866 344.405 229.939C344.405 230.735 344.405 231.501 344.405 232.239C344.405 232.987 344.462 233.763 344.596 234.578C344.721 235.114 344.788 235.689 344.788 236.303C344.788 236.897 344.846 237.52 344.98 238.181C345.133 238.593 345.306 238.967 345.516 239.293C345.718 239.628 345.881 240.002 346.015 240.404C346.015 241.353 346.072 242.091 346.206 242.628C346.331 242.886 346.36 243.193 346.283 243.548C346.226 243.883 346.264 244.18 346.398 244.429L347.011 246.461C347.289 247.668 347.701 248.876 348.238 250.103C348.775 251.31 349.235 252.575 349.618 253.898C350.021 254.846 350.557 255.853 351.228 256.926C351.918 257.999 352.531 259.073 353.068 260.146L353.26 260.951C353.538 261.238 353.768 261.516 353.95 261.794C354.151 262.053 354.333 262.312 354.486 262.561C354.87 263.251 355.186 263.931 355.445 264.593C355.723 265.263 356.068 265.934 356.48 266.624L358.09 268.809C359.316 270.295 360.629 271.838 362.038 273.448C363.437 275.058 364.817 276.476 366.178 277.703C366.964 278.373 367.731 279.111 368.478 279.926C369.216 280.721 369.992 281.45 370.816 282.111C371.2 282.398 371.593 282.705 372.005 283.031C372.407 283.366 372.743 283.673 373.001 283.951C373.404 284.21 373.816 284.411 374.228 284.564C374.631 284.698 375.033 284.89 375.416 285.139C375.694 285.293 376.394 285.848 377.525 286.788C378.675 287.708 379.844 288.513 381.051 289.203C382.278 289.873 383.093 290.065 383.505 289.778C383.093 290.19 383.217 290.535 383.888 290.813C384.703 291.196 385.546 291.531 386.418 291.809C387.281 292.068 388.191 292.336 389.14 292.614C390.213 292.873 391.248 293.247 392.245 293.726C393.261 294.186 394.248 294.627 395.196 295.029C396.394 295.566 397.468 295.901 398.416 296.026C398.666 296.16 398.963 296.16 399.298 296.026C399.653 295.901 399.892 295.901 400.026 296.026C400.429 296.16 400.803 296.323 401.138 296.524C401.464 296.725 401.838 296.831 402.25 296.831C402.374 296.984 402.499 297.023 402.633 296.946C402.786 296.869 402.921 296.831 403.055 296.831C403.591 296.984 404.147 297.118 404.741 297.253C405.355 297.377 405.93 297.502 406.466 297.636C406.869 297.636 407.271 297.598 407.655 297.521C408.057 297.463 408.469 297.502 408.881 297.636C409.284 297.914 410.031 298.058 411.105 298.058C412.178 298.058 413.251 297.789 414.325 297.253C414.727 297.253 415.072 297.109 415.36 296.831L415.935 296.448C416.088 296.17 416.222 295.93 416.356 295.719C416.481 295.518 416.548 295.355 416.548 295.221C416.826 294.684 416.931 294.023 416.855 293.228C416.778 292.413 416.74 291.733 416.74 291.196C416.893 290.381 416.97 289.576 416.97 288.781C416.97 287.966 416.97 287.161 416.97 286.366C417.094 285.427 417.161 284.555 417.161 283.759C417.161 282.945 417.161 282.063 417.161 281.114C417.161 280.328 417.161 279.523 417.161 278.699C417.161 277.885 417.094 277.08 416.97 276.284V275.479C416.97 275.201 416.97 274.971 416.97 274.789C416.97 274.588 416.97 274.406 416.97 274.253C416.97 274.003 416.931 273.706 416.855 273.371C416.778 273.045 416.606 272.604 416.356 272.068C416.222 271.79 416.088 271.588 415.935 271.454C415.801 271.301 415.609 271.167 415.36 271.033C414.67 270.371 414.114 269.978 413.711 269.844C412.916 269.566 411.986 269.298 410.913 269.039C410.626 268.886 410.281 268.809 409.878 268.809C409.495 268.809 409.092 268.752 408.69 268.618C407.866 268.618 407.329 268.56 407.08 268.426C405.182 268.023 403.294 267.448 401.406 266.701C399.538 265.963 397.736 265.12 396.001 264.171C394.775 263.51 393.481 262.81 392.13 262.063C390.798 261.325 389.6 260.558 388.526 259.763C388.114 259.36 387.769 258.919 387.491 258.459C387.233 257.98 386.916 257.606 386.533 257.348C385.584 256.408 384.703 255.536 383.888 254.741C383.093 253.926 382.355 253.045 381.665 252.096C381.281 251.435 380.821 250.831 380.285 250.294C379.748 249.758 379.336 249.221 379.058 248.684L377.64 246.269C377.64 246.116 377.64 246.02 377.64 245.963C377.64 245.886 377.64 245.79 377.64 245.656C377.506 245.378 377.343 245.11 377.141 244.851C376.931 244.573 376.835 244.305 376.835 244.046C376.701 243.768 376.662 243.528 376.72 243.318C376.796 243.116 376.835 242.953 376.835 242.819C376.835 242.417 377.036 242.014 377.448 241.631C377.726 241.094 378.138 240.749 378.675 240.596C379.058 240.347 379.48 240.213 379.94 240.213C380.419 240.213 380.869 240.213 381.281 240.213C383.169 240.213 385.086 240.251 387.031 240.328C388.967 240.385 390.951 240.404 392.973 240.404C394.832 240.404 396.739 240.347 398.685 240.213C400.649 240.088 402.499 240.088 404.243 240.213C404.933 240.347 405.546 240.404 406.083 240.404C406.62 240.404 407.156 240.404 407.693 240.404C408.632 240.404 409.504 240.308 410.3 240.098C411.114 239.896 411.919 239.523 412.715 238.986C413.788 238.2 414.382 237.031 414.516 235.498C414.67 233.945 414.746 232.623 414.746 231.549C414.746 231.271 414.67 231.108 414.516 231.051C414.382 230.974 414.325 230.878 414.325 230.744C414.325 230.744 414.344 230.706 414.401 230.629C414.478 230.553 414.516 230.457 414.516 230.323V222.886C414.516 222.196 414.516 221.458 414.516 220.663C414.516 219.848 414.516 219.11 414.516 218.439C414.516 218.037 414.516 217.596 414.516 217.136C414.516 216.657 414.449 216.216 414.325 215.833C414.066 214.357 413.328 213.207 412.101 212.383C411.967 212.383 411.843 212.325 411.718 212.191C411.181 211.913 410.434 211.769 409.495 211.769C408.546 211.769 407.741 211.769 407.08 211.769H406.658C405.863 211.769 405.058 211.712 404.243 211.578C403.448 211.453 402.643 211.386 401.828 211.386C400.879 211.52 399.969 211.578 399.106 211.578C398.234 211.578 397.266 211.578 396.193 211.578C394.296 211.712 392.379 211.769 390.443 211.769C388.498 211.769 386.581 211.769 384.693 211.769C384.559 211.769 384.463 211.712 384.386 211.578C384.329 211.453 384.243 211.453 384.118 211.578H383.505C383.505 211.578 383.438 211.578 383.313 211.578C382.901 211.578 382.451 211.558 381.971 211.501C381.511 211.424 381.071 211.386 380.668 211.386C380.256 211.386 379.882 211.424 379.556 211.501C379.221 211.558 378.847 211.52 378.445 211.386C378.061 211.108 377.726 210.773 377.448 210.389C377.314 210.111 377.256 209.872 377.256 209.661C377.256 209.46 377.256 209.297 377.256 209.163C377.256 209.038 377.18 208.913 377.026 208.779C376.892 208.626 376.835 208.492 376.835 208.358L377.64 206.939C377.918 206.537 378.081 206.134 378.138 205.751C378.215 205.348 378.311 204.936 378.445 204.524C381.406 199.292 385.441 194.826 390.558 191.146C395.666 187.447 401.109 184.917 406.888 183.556L409.686 182.943C409.964 182.943 410.204 182.981 410.415 183.058C410.616 183.134 410.779 183.096 410.913 182.943H411.718C413.989 182.693 415.436 181.754 416.05 180.144C416.663 178.534 417.027 176.79 417.161 174.893C417.286 173.953 417.353 172.976 417.353 171.979C417.353 170.963 417.353 169.986 417.353 169.066C417.353 165.568 417.142 162.147 416.74 158.793C416.606 158.515 416.548 158.17 416.548 157.758C416.548 157.355 416.414 157.02 416.165 156.761C415.628 155.688 414.804 154.988 413.711 154.653C412.638 154.327 411.565 154.221 410.491 154.346C409.955 154.48 409.476 154.518 409.073 154.461C408.69 154.384 408.23 154.413 407.693 154.538C407.406 154.538 407.099 154.614 406.773 154.768C406.438 154.902 406.131 154.959 405.853 154.959C405.316 155.093 404.818 155.151 404.358 155.151C403.898 155.151 403.457 155.151 403.055 155.151L399.03 156.148C398.493 156.148 398.081 156.215 397.803 156.339C397.669 156.493 397.506 156.636 397.305 156.761C397.094 156.895 396.864 156.953 396.615 156.953C396.461 157.087 396.279 157.144 396.078 157.144C395.867 157.144 395.637 157.221 395.388 157.374C395.254 157.374 395.12 157.336 394.966 157.259C394.832 157.183 394.708 157.221 394.583 157.374C394.046 157.374 393.711 157.441 393.586 157.566C393.433 157.566 393.289 157.671 393.165 157.873C393.031 158.083 392.829 158.179 392.551 158.179C392.168 158.313 391.727 158.448 391.248 158.601C390.788 158.735 390.347 158.86 389.945 158.984C389.533 159.118 389.082 159.253 388.603 159.406C388.143 159.54 387.645 159.732 387.108 159.981C386.974 159.981 386.878 160.058 386.801 160.211C386.744 160.345 386.581 160.403 386.303 160.403C386.169 160.537 385.968 160.633 385.69 160.709C385.431 160.767 385.172 160.93 384.923 161.208C384.386 161.342 383.85 161.668 383.313 162.204C383.026 162.204 382.891 162.204 382.891 162.204C382.757 162.204 382.7 162.271 382.7 162.396C382.7 162.53 382.623 162.664 382.47 162.818C382.211 162.952 381.914 163.076 381.588 163.201C381.253 163.335 380.946 163.469 380.668 163.623C380.534 163.757 380.304 163.853 379.978 163.929C379.643 163.987 379.336 164.073 379.058 164.198L372.81 168.453C372.676 168.587 372.541 168.721 372.388 168.874C372.254 169.008 372.129 169.133 372.005 169.258C371.209 169.794 370.606 170.273 370.203 170.676C368.056 172.42 365.929 174.433 363.84 176.733C361.77 179.013 359.853 181.285 358.09 183.556C357.294 184.505 356.528 185.588 355.79 186.814C355.042 188.022 354.343 189.153 353.681 190.226C352.196 193.043 350.816 195.995 349.541 199.081C348.257 202.176 347.289 205.329 346.628 208.549C346.475 208.961 346.187 210.044 345.785 211.808C345.401 213.552 345.066 215.2 344.788 216.753C344.529 218.286 344.529 219.12 344.788 219.244C344.376 220.605 344.175 222.004 344.175 223.461Z" fill="#D1D1D1"/>
</g>
<defs>
<clipPath id="clip0_149_252">
<rect width="416.701" height="298.935" fill="white" transform="translate(0.649414 0.532593)"/>
</clipPath>
</defs>
</svg>
